<?xml version="1.0"?>
<svg xmlns:rdf="http://www.w3.org/1999/02/22-rdf-syntax-ns#" xmlns="http://www.w3.org/2000/svg" xmlns:cc="http://creativecommons.org/ns#" xmlns:dc="http://purl.org/dc/elements/1.1/" xmlns:svg="http://www.w3.org/2000/svg" id="svg3088" viewBox="0 0 1052.4 744.09" version="1.1">
  <g id="layer3">
    <path id="path3195" fill-rule="evenodd" d="m392.33 534.2c-0.33702 0.002-0.70564-7.4915-1.0988-21.798 0.11001-5.9299 0.45767-13.039 1.485-21.22 0.86101-6.8576 2.1788-14.5 4.6691-22.658 1.9968-6.565 4.7686-13.56 9.3462-20.134 1.9408-2.7825 4.2376-5.4664 6.9752-7.8484 2.5644-2.2291 5.5186-4.1593 8.8119-5.5902 3.5439-1.5145 7.3746-2.3965 11.336-2.6905 3.9609-0.29404 8.0522 0.00013 12.07 0.80348 5.4092 1.0726 10.752 2.8731 16.001 5.2255 5.2487 2.3524 10.403 5.2573 15.439 8.4501 4.6866 2.9595 8.9828 6.7311 12.669 11.161 3.5808 4.3091 6.5836 9.1735 9.067 14.349 2.5847 5.3962 4.6698 11.094 6.3958 16.995 1.7259 5.9005 3.0924 12.003 4.2852 18.183 2.4755 12.736 4.2117 25.99 6.3352 39.514 2.014 12.781 4.3019 25.858 8.2541 38.737 0.92787 3.2439 3.4321 6.1699 6.4495 8.4821 3.0362 2.1815 6.5482 3.7603 9.9424 3.6964 28.315 0.0902 58.069 0.54098 89.118 0.793s63.393 0.30641 96.883-0.73017h0.00008c29.813-0.92627 60.581-2.7189 91.972-6.1531s63.404-8.5106 95.632-16.186c4.2915-0.9749 8.3887-3.417 12.027-6.5183 0.00002-0.00002 0.00004-0.00003 0.00006-0.00005 3.6494-3.1599 6.746-7.0273 9.1045-11.312 9.8566-17.985 18.394-37.033 22.532-57.243 1.9399-9.5192 2.9062-19.226 1.7851-28.652-1.0374-8.7046-3.904-17.249-8.9713-24.173-21.611-29.836-45.357-59.028-71.38-86.853s-54.325-54.282-85.019-78.581c-5.9081-4.6782-11.904-9.2746-17.987-13.785-46.006-34.117-95.288-62.072-145.92-83.395-12.061-5.0868-24.623-8.957-37.306-12.289-15.627-4.1-31.401-7.2728-47.159-9.8968-38.566-6.4207-76.882-9.5653-114.34-10.751-43.185-1.3621-85.228 0.014-125.59 4.0597-20.817 2.0903-41.197 4.8601-60.981 8.4872s-38.972 8.1115-57.443 13.565c-7.1433 2.0769-13.608 6.411-18.738 11.855-5.2537 5.5773-9.5108 12.12-13.359 18.9-4.1218 7.2887-7.6686 14.872-11.066 22.482-3.2236 7.228-6.2804 14.525-9.6015 21.686-2.603 5.6665-5.4116 11.516-9.3639 16.813-3.6186 4.8181-7.5104 9.5319-12 13.721-1.0379 0.97523-1.9678 1.7978-2.6394 2.6084-0.865 0.99243-1.6088 2.2493-2.3654 3.6314-0.60293 0.81603-0.60831 2.5143-0.9634 4.6771v0.00007c-0.11122 2.1302-0.79859 4.8802-2.873 7.5062-3.1178 3.3969-5.5853 7.3847-7.4393 11.615-1.8121 4.126-3.0498 8.5374-4.0365 13.026-0.92617 4.2553-1.5642 8.6508-2.3203 13.079-0.75612 4.4282-1.6303 8.8891-2.9856 13.286-1.9864 6.3592-3.6524 12.714-5.0021 19.033-1.4328 6.7058-2.6633 13.402-4.0535 20.002-0.941 4.4744-2.1936 8.7155-3.3044 12.824-1.1108 4.1086-2.0798 8.0847-2.515 12.017-0.55864 4.8454-0.42782 9.7004 0.33508 14.374h-0.000002c0.17802 6.2128 1.5169 12.159 3.3836 17.77 0.34833-1.538 0.31462-3.5013 0.12031-5.5777 0.66345-2.3822 0.96706-4.9106 1.1451-7.483 0.41878-6.1648-0.0014-12.34-0.29979-18.451-0.31798-6.2199-0.64831-12.45-0.04015-18.566 0.256-2.6331 0.73621-5.3138 1.6723-7.8974 0.80519-2.2665 2.0994-4.4575 3.974-6.2094 2.6455-2.4468 5.7024-4.6336 9.2234-5.8968 3.0553-1.0564 6.2854-1.1877 9.2852-0.54459 3.5691 0.78888 6.6786 2.3615 9.4491 4.0416 3.9167 2.3504 7.4042 4.9645 10.705 7.4746 2.6654 2.0611 4.4588 4.7006 5.8567 7.247 1.9703 3.5246 3.3701 7.1062 4.5401 10.545 1.641 4.8138 2.8621 9.4274 3.8555 13.773 0.9934 4.3458 1.7578 8.4243 2.4086 12.197 1.7294 10.009 2.5958 17.951 3.1067 23.617v0.00001c0.29512 3.2726 0.45744 5.791 0.52512 7.525 0.0359 0.91866 0.0448 1.6176 0.0307 2.0924-0.007 0.24371-0.0205 0.42848-0.0395 0.55367v0.00001c-0.01 0.0634-0.0206 0.11156-0.0331 0.14435v0.00001c-0.0216 0.0178-0.0322 0.0308-0.0375 0.0394-0.005 0.008-0.005 0.0127-0.005 0.0131v0.00001-0.00001c-0.00004-0.00036-0.00068-0.005-0.007-0.012-0.007-0.008-0.0194-0.0185-0.0437-0.0323-0.018-0.0301-0.0373-0.0754-0.058-0.13592-0.041-0.1196-0.0874-0.29847-0.13975-0.53615-0.10203-0.46306-0.22647-1.149-0.37717-2.0539-0.28446-1.708-0.66109-4.1951-1.1675-7.431v-0.00002c-0.87703-5.6034-2.1006-13.461-4.1657-23.323-0.78043-3.7226-1.6679-7.7337-2.7719-11.98-1.104-4.2466-2.4232-8.7292-4.142-13.362-1.2301-3.3087-2.6372-6.6798-4.5346-9.875-1.3975-2.3101-2.941-4.5559-5.0198-6.0157-3.3417-2.4196-6.7771-4.8891-10.506-7.0157-2.6549-1.497-5.396-2.8542-8.2713-3.3878-2.2967-0.44391-4.7598-0.30219-6.9775 0.53111-2.7103 0.96999-5.2053 2.8961-7.614 5.1286-1.1942 1.0892-2.046 2.6899-2.6851 4.4523-0.7303 2.065-1.0805 4.3633-1.2956 6.7758-0.48892 5.6316-0.05626 11.586 0.34029 17.834 0.39903 6.0585 0.91153 12.408 0.5739 19.054-0.13801 2.7801-0.45953 5.6649-1.2063 8.5704-1.3826 2.3792-3.1927 4.8163-5.6756 7.0163-3.5731-6.0461-6.7149-12.602-8.7878-19.64-0.91208-5.1868-1.1252-10.58-0.56823-15.989 0.47338-4.4186 1.4482-8.7083 2.5269-12.929 1.0786-4.2206 2.2612-8.372 3.0886-12.525 1.2969-6.5105 2.4555-13.22 3.8425-20.065 1.3245-6.5309 2.9751-13.1 4.9573-19.674 1.1994-3.9288 1.9591-8.0981 2.6475-12.433 0.68835-4.3348 1.3052-8.8353 2.2622-13.417 0.98912-4.7823 2.3219-9.6394 4.332-14.38 2.0768-4.8882 4.9243-9.5552 8.5961-13.653 0.58263-0.30694 0.6366-1.7235 1.0099-3.549 0-0.00002 0-0.00003 0.00001-0.00005 0.14054-1.884 0.38925-4.4158 1.7131-7.2254 0.83945-1.6211 1.8576-3.3103 3.1951-4.9351 1.1057-1.3014 2.2301-2.3457 3.2163-3.2659 3.9918-3.754 7.5499-8.1668 11.02-12.834 3.3525-4.4776 5.8371-9.8767 8.4256-15.509 3.19-7.01 6.1761-14.29 9.3978-21.652 3.3787-7.7294 6.9821-15.557 11.246-23.232 3.9492-7.1333 8.5346-14.219 14.37-20.551 5.9492-6.455 13.601-11.6 22.339-14.261 18.75-5.65 38.207-10.314 58.238-14.097 20.032-3.7837 40.638-6.6875 61.652-8.8842 40.751-4.2666 83.199-5.8203 126.78-4.5808 37.793 1.0709 76.54 4.1536 115.65 10.574 15.984 2.6237 32.055 5.828 48.056 9.9935 12.968 3.3711 25.977 7.3705 38.652 12.682 51.394 21.565 101.4 49.881 148.05 84.476 6.1674 4.5736 12.247 9.2351 18.237 13.98 31.108 24.648 59.758 51.461 86.063 79.643s50.266 57.733 72.028 87.921c6.1391 8.5842 9.5716 18.662 10.692 28.777 1.1983 10.8 0.15854 21.52-1.9971 31.71-4.5375 21.544-13.46 41.441-23.686 59.843-2.8982 5.2396-6.7059 9.9526-11.231 13.852-0.00002 0.00002-0.00005 0.00004-0.00007 0.00006-4.4927 3.9198-9.925 7.0185-16.013 8.4938-32.712 7.6554-65.118 12.666-96.821 15.997-31.703 3.3301-62.705 4.9801-92.687 5.7328h-0.00007c-33.679 0.84946-66.123 0.59168-97.212 0.12136-31.088-0.47032-60.821-1.1543-89.081-1.4912-5.3678-0.13007-10.252-2.2272-14.113-5.2201-3.9955-2.9495-7.2951-7.1079-8.8514-12.119-3.9756-13.465-6.1977-26.856-8.0805-39.752-2.0032-13.666-3.5789-26.845-5.8668-39.365-1.1201-6.0831-2.3712-12.02-3.9476-17.701s-3.4778-11.106-5.853-16.189c-2.2647-4.8568-4.9569-9.3743-8.1572-13.318-3.2786-4.0471-7.1052-7.512-11.28-10.228-4.87-3.1523-9.7673-6.0191-14.695-8.3375-4.9282-2.3184-9.8872-4.0889-14.874-5.1369-3.6495-0.76061-7.3301-1.0999-10.853-0.91941-3.5228 0.18052-6.8882 0.88065-9.9529 2.1628-2.8795 1.1814-5.5116 2.8323-7.8292 4.7626-2.4832 2.0662-4.6177 4.4666-6.4677 6.9934-4.3895 5.9848-7.1712 12.6-9.2804 18.908-2.6121 7.8387-4.1077 15.288-5.1701 22.016-1.2634 7.9999-1.8654 15.004-2.2367 20.87-0.24316 14.266-0.53307 21.761-0.87009 21.763z"/>
    <path id="path3200" fill-rule="evenodd" d="m366.08 218.66c1.244-0.83689 26.143 33.763 64.547 89.208 1.9818 3.1334 2.599 6.571 2.4193 9.5812-0.0778 3.4441-0.79904 6.8624-2.061 10.075-1.0702 2.898-2.7654 5.8914-5.4369 8.4373-1.1175 1.0704-2.5631 2.0152-4.3378 2.6607-1.7372 0.59397-3.6206 0.69947-5.4852 0.26849-50.168-11.784-110.62-26.33-175.59-42.317-11.416-2.8086-22.687-5.5918-33.783-8.3414-5.7332-1.4404-10.999-3.7376-15.853-6.3213-5.4156-2.8554-10.545-6.182-15.272-9.9565-4.1584-3.273-8.2165-7.0992-11.436-11.815-1.2692-1.8285-2.4091-4.0044-3.1476-6.5372-0.66101-2.1413-0.74563-4.6659-0.008-7.3128 4.05-12.806 8.0029-25.254 11.839-37.286 2.1007-6.2539 6.2077-11.117 10.753-14.651 4.7686-3.7886 9.9732-6.5489 15.146-8.6968 8.154-3.4062 16.458-5.4675 24.514-6.6833 9.0006-1.3622 17.722-1.7203 25.994-1.5374 9.6718 0.21443 18.761 1.134 27.209 2.3993s16.255 2.877 23.385 4.58h0.00002c8.3698 1.9975 15.828 4.135 22.331 6.2035 6.5032 2.0685 12.053 4.0679 16.611 5.8358 10.067 4.2153 15.408 6.7388 15.216 7.2614h-0.00001l-0.00057 0.002-0.00059 0.001c-0.21302 0.51491-5.9388-1.009-16.27-4.2547-4.6638-1.3302-10.286-2.8965-16.816-4.5385-6.5308-1.642-13.971-3.3597-22.267-4.9485h-0.00002c-7.0824-1.3553-14.789-2.6302-23.056-3.5766-8.2677-0.94639-17.097-1.565-26.401-1.5048-7.9493 0.0511-16.229 0.59355-24.631 2.068-7.5149 1.3222-15.133 3.367-22.426 6.5919-4.6392 2.0642-9.1196 4.5044-12.94 7.69-3.5036 3.0018-6.5706 6.5146-7.6449 10.466-3.6667 12.084-7.4737 24.578-11.403 37.421-0.18206 0.31085-0.0522 1.018 0.12667 1.8784 0.28747 1.1339 1.0076 2.3608 1.8896 3.7081 2.3467 3.5017 5.7555 6.5667 9.5126 9.5773 4.2387 3.3426 8.8712 6.3036 13.783 8.8678 4.4629 2.3059 8.9968 4.3003 13.639 5.4126 11.105 2.7125 22.381 5.4767 33.797 8.2853 64.978 15.987 125.28 31.148 175.18 43.986 0.2421 0.0873 0.59851 0.0737 0.90066-0.0147 0.40804-0.0849 0.90879-0.44325 1.4808-0.90334 1.4776-1.2127 2.5604-3.1953 3.5254-5.3671 0.99533-2.4106 1.6085-4.9139 1.7134-7.3546-0.0189-2.1687-0.10603-4.0899-0.93981-5.1419-36.883-56.468-59.548-92.571-58.304-93.408z"/>
    <path id="path3204" fill-rule="evenodd" d="m828.43 316.61c0.006 1.3016-38.698 2.6473-102.37 3.6618-63.671 1.0145-152.31 1.6972-251.57 1.9756h-0.00004c-7.0992-9.845-14.288-19.827-21.551-29.921-29.24-40.65-57.18-79.59-82.87-115.29 36.749 0.34034 70.836 0.73948 101.27 1.2222 30.435 0.48271 57.219 1.0491 79.39 1.6753 22.17 0.62623 39.727 1.3121 51.732 1.9855 12.005 0.67342 18.459 1.3339 18.447 1.8661-0.0124 0.53217-6.4872 0.89098-18.425 1.0057-11.938 0.11475-29.338-0.0151-51.225-0.41681-21.886-0.40176-48.258-1.0757-78.164-2.0009-29.906-0.92524-63.345-2.1017-99.391-3.4599 25.878 33.476 53.934 69.631 83.203 107.47 7.2699 9.3992 14.459 18.702 21.553 27.894h0.00003c98.039-0.65228 185.38-0.79963 248.36-0.38253 62.981 0.4171 101.6 1.398 101.61 2.6996z"/>
    <path id="path3208" fill-rule="evenodd" d="m503.87 361.43c1.1018-0.85698 17.673 18.391 43.489 50.105 4.8888 5.9866 11.057 11.693 18.512 16.187 3.2896 1.9632 6.8242 3.7006 10.535 4.9992 3.7112 1.2986 7.5991 2.1584 11.573 2.3223 30.282 2.5171 64.637 5.8756 101.16 9.5235 1.5308 0.15291 3.0579 0.30555 4.5814 0.45785-3.2514-2.3104-6.4773-4.6052-9.6714-6.8893-2.2073-3.0354-4.4388-5.9763-6.7515-8.7686-2.1622-2.5927-4.2445-5.0021-6.4863-6.95-7.3681-6.4868-15.346-11.929-23.513-16.609-8.1673-4.6795-16.523-8.5965-24.725-11.986h-0.00002c-5.8375-2.4088-11.679-4.4332-17.422-6.2442-5.7434-1.811-11.389-3.4086-16.854-4.9179-14.552-4.011-27.786-7.1605-39.194-9.8299-13.449-3.1465-24.36-5.5804-32.089-7.4291-4.1961-1.0036-7.454-1.8306-9.6766-2.4855-1.1474-0.33806-2.0185-0.63004-2.6003-0.87604-0.29508-0.12477-0.51562-0.23769-0.66002-0.33876-0.0727-0.0509-0.126-0.0987-0.15984-0.1436-0.0109-0.0612-0.0213-0.0931-0.0292-0.10967-0.008-0.0164-0.0129-0.0178-0.0133-0.0179h-0.00001 0.00001c0.00036 0.00004 0.006 0.00033 0.0182-0.0129 0.0126-0.0134 0.0324-0.0405 0.0616-0.0953 0.0461-0.0322 0.11187-0.0611 0.19697-0.0867 0.16895-0.051 0.4143-0.0892 0.73419-0.11452 0.63072-0.05 1.5517-0.0499 2.7492 0.00073 2.3195 0.0981 5.6781 0.3858 9.9768 0.87176 7.9179 0.89507 19.033 2.4501 32.715 4.8243 11.603 2.013 25.071 4.5882 39.95 8.1408 5.5647 1.3254 11.359 2.7715 17.32 4.473 5.961 1.7016 12.089 3.6587 18.3 6.0512l0.00001 0.00001c8.578 3.2966 17.379 7.2264 26.067 12.051 8.6884 4.8249 17.264 10.546 25.304 17.459 2.9046 2.5276 5.3811 5.3039 7.6487 8.0338 2.5316 3.0286 4.9324 6.1599 7.2558 9.336 1.774 4.8916 3.5566 9.831 5.3501 14.807-1.5866-0.0391-3.1773-0.0783-4.772-0.11772-38.045-0.94056-73.959-1.9063-105.31-3.1821-4.9392-0.38464-9.607-1.5273-13.938-3.1552-4.3313-1.6279-8.3261-3.7411-11.944-6.1106-8.1982-5.325-14.771-11.892-19.825-18.69-24.384-32.828-38.961-53.627-37.859-54.484z"/>
    <path id="path3216" fill-rule="evenodd" d="m381.85 367.24c-0.62126 2.6892-57.464-8.1439-126.88-24.181-69.417-16.037-125.25-31.235-124.63-33.924 0.62126-2.6892 57.464 8.1439 126.88 24.181 69.417 16.037 125.25 31.235 124.63 33.924z"/>
    <path id="path3220" fill-rule="evenodd" d="m353.63 455.23c-0.70299 2.669-42.923-6.1352-94.242-19.652s-92.398-26.653-91.695-29.322c0.70299-2.669 42.923 6.1352 94.242 19.652s92.398 26.653 91.695 29.322z"/>
    <path id="path3224" d="m594.81 471.78c0.39558-0.0009 0.77688 0.0355 1.1875 0.0625 32.057 2.105 161.88 4.9688 161.88 4.9688v52.281l-165.19-2.4688c-18.007-0.27147-22.796-54.787 2.125-54.844z" fill-rule="evenodd"/>
    <path id="path3229" fill-rule="evenodd" d="m918.91 405.42c0.65988-0.20163 1.4678 0.20245 2.3011 1.0756 0.8333 0.87317 1.6914 2.2152 2.5 3.9126 0.80857 1.6974 1.5676 3.7503 2.2554 6.0703 0.68781 2.32 1.3049 4.9076 1.878 7.6975 0.58955 2.8701 1.0831 5.6801 1.5372 8.3283 2.6549-1.659 5.0968-2.7501 7.1166-3.1182 2.0198-0.36815 3.6129-0.0157 3.9936 0.93609 0.38071 0.95177-0.5886 2.3292-2.9627 3.7186s-6.1578 2.7886-10.829 4.0602c-1.1426-2.5773-2.4118-5.5366-3.6749-8.7294-1.2278-3.1037-2.3267-6.1322-3.1999-8.9211-0.87324-2.7888-1.5203-5.3378-1.8927-7.5054s-0.4702-3.954-0.29753-5.2428c0.17266-1.2889 0.61524-2.0806 1.2751-2.2823z"/>
    <path id="path3233" fill-rule="evenodd" d="m921.4 417.05c0.11693 2.7575-52.408 7.2268-117.24 9.976-64.835 2.7492-117.55 2.7424-117.67-0.0151-0.11693-2.7575 52.408-7.2268 117.24-9.976 64.835-2.7492 117.55-2.7424 117.67 0.0151z"/>
    <path id="path3237" fill-rule="evenodd" d="m957.09 454.41c5.8105 14.659 9.9609 35.958 0 53.938l-55.607 12.455-0.84375-51.469z"/>
    <rect id="rect3242" transform="matrix(-.99826 .058947 0 1 0 0)" ry="6.6441" height="45.678" width="137.4" stroke="#000" stroke-linecap="round" y="526.62" x="-899.74" stroke-width="3.5181" fill="none"/>
    <path id="path3244" fill-rule="evenodd" d="m937.17 547.37c0.15678 0.23125-0.36494 0.94474-1.6319 1.9878s-3.3109 2.3814-6.0374 3.8353c-3.1502 1.6848-7.267 3.5547-12.228 5.4678-4.4896 1.7322-9.6854 3.5304-15.523 5.3036s-12.318 3.5193-19.341 5.2138c-12.979 3.1344-27.887 6.1151-44.275 8.4994s-34.256 4.168-53.07 5.0468c-7.7397 0.36593-15.656 0.58164-23.703 0.59602-15.293 0.0273-30.172-0.68874-44.306-2.1743-14.134-1.4855-27.522-3.741-39.888-6.6131h-0.00001c-9.3282-2.166-18.08-4.7177-26.09-7.563-8.0094-2.8453-15.276-5.9827-21.715-9.2298-6.5249-3.2874-12.194-6.7106-16.951-9.9907-4.7568-3.2801-8.6065-6.4139-11.594-9.1267-2.9873-2.7128-5.1179-5.0012-6.4582-6.6449-1.3403-1.6436-1.8954-2.6394-1.6717-2.8698 0.22369-0.23038 1.2154 0.31352 2.9419 1.4869s4.1926 2.9725 7.4388 5.1708c3.2463 2.1983 7.2783 4.7924 12.132 7.5282 4.8536 2.7358 10.534 5.6106 16.992 8.3904 6.382 2.7444 13.523 5.3955 21.364 7.799s16.382 4.5582 25.492 6.403h0.00002c12.092 2.4487 25.151 4.361 38.952 5.6106 13.801 1.2497 28.343 1.8377 43.343 1.8114 7.8923-0.0138 15.672-0.19343 23.293-0.49051 18.522-0.73272 36.122-2.1938 52.31-4.1175s30.966-4.3064 43.909-6.7457c7.007-1.3221 13.464-2.6537 19.299-3.9864s11.05-2.6647 15.596-3.9167c5.0233-1.384 9.1939-2.677 12.474-3.7899 2.8588-0.97596 5.0139-1.7756 6.4904-2.3227 1.4765-0.54711 2.2972-0.80076 2.454-0.56951z"/>
    <path id="path3248" fill-rule="evenodd" d="m906.46 419.54c0.35007 0.0304 0.66995 0.39263 0.91019 1.0898 0.24023 0.69719 0.39837 1.7309 0.36198 3.0627-0.0364 1.3318-0.27033 2.9631-0.83548 4.7915-0.56514 1.8284-1.4644 3.8545-2.8074 5.8961-1.3054 1.9773-2.9695 3.9656-4.9709 5.8386s-4.3404 3.6296-6.9168 5.1695c-5.2031 2.8206-11.392 5.0732-18.078 6.4254-5.8069 1.1745-11.501 1.5903-16.676 1.5052v-0.00001c-6.2242-7.2839-11.296-13.757-14.502-18.543-3.2063-4.7856-4.5503-7.8848-3.7213-8.5954 0.829-0.71057 3.6484 1.0476 7.5043 4.5012s8.7453 8.6012 14.116 14.845c4.2202-0.4609 8.649-1.2514 13.083-2.5226 5.1049-1.4636 9.7395-3.4453 13.796-5.7332 2.2451-1.1203 4.2984-2.3007 6.0998-3.5342 1.8013-1.2336 3.3514-2.5206 4.658-3.823 1.3138-1.2942 2.3968-2.6208 3.2834-3.859 0.88657-1.2383 1.5786-2.3896 2.1487-3.3656 0.5701-0.97596 1.0212-1.7778 1.4271-2.3285 0.40591-0.55069 0.76998-0.8507 1.12-0.82026z"/>
    <path id="path3252" fill-rule="evenodd" d="m799.38 428.67c0.84924 0.22647 0.96759 2.935 0.23745 7.7006s-2.3114 11.59-4.6032 19.826c-4.5773 0.84995-9.7296 1.5161-15.278 1.8305s-11.492 0.27537-17.598-0.24505c-5.341-0.45525-10.481-1.2515-15.28-2.315-4.1316-1.1133-8.0303-2.4567-11.594-3.9669-3.5636-1.5102-6.7917-3.1864-9.6234-4.9233-2.7673-1.6904-5.1583-3.463-7.1278-5.1752s-3.5196-3.3619-4.6688-4.8096-1.9004-2.6914-2.297-3.6237c-0.39654-0.93226-0.44145-1.5516-0.15602-1.8081 0.28543-0.25647 0.8848-0.13862 1.7675 0.26577 0.88271 0.40438 2.0515 1.093 3.5192 1.9542 1.4678 0.86127 3.2375 1.8935 5.3221 2.9924s4.4864 2.2636 7.1773 3.4174c2.7637 1.1789 5.8336 2.3318 9.1818 3.3939s6.975 2.0335 10.819 2.8906c4.0885 1.1323 8.4015 2.1468 12.886 2.9555 5.1264 0.92445 10.125 1.5139 14.893 1.8105 4.7677 0.29657 9.3036 0.30072 13.506 0.10754 1.7042-6.7494 3.4432-12.376 5.0344-16.315 1.5912-3.9394 3.0318-6.1896 3.8811-5.9631z"/>
    <path id="path3256" fill-rule="evenodd" d="m720.52 328.23c0.33534-0.57881 2.1986-0.23081 5.3039 0.85794s7.4605 2.906 12.783 5.3389c5.3226 2.4329 11.62 5.4773 18.494 9.2264 6.8746 3.7491 14.327 8.211 21.79 13.657v0.00001c0.93924 0.68651 1.8776 1.3887 2.8135 2.1067 4.5372 3.4806 8.761 7.141 12.579 10.886 3.8176 3.7451 7.2285 7.5744 10.19 11.362 3.5211 4.5109 6.3772 8.9434 8.6362 13.024 2.259 4.0807 3.9235 7.8086 5.0988 10.956 1.1752 3.1471 1.8647 5.7131 2.1625 7.524 0.29783 1.8109 0.2079 2.8667-0.2424 3.0488-0.4503 0.18215-1.2307-0.51925-2.3275-1.9397-1.0967-1.4205-2.5138-3.5595-4.3062-6.2276-3.5849-5.3361-8.7055-12.805-15.843-20.651-3.0007-3.3051-6.3587-6.6791-10.048-10.042-3.6895-3.3633-7.7104-6.7162-11.991-10.005-0.88299-0.67841-1.7667-1.3464-2.6499-2.004v-0.00001c-7.0042-5.2242-14.009-9.778-20.465-13.886-6.4554-4.1078-12.354-7.7723-17.238-10.989-4.8845-3.2171-8.7564-5.9789-11.302-8.0936-2.5458-2.1148-3.7735-3.5704-3.4382-4.1492z"/>
    <path id="path5024" d="m824.8 429.58-1.3443 7.6823 7.2333 7.6823 1.3655-7.6271zm5.8889 15.365h-8.3684l-1.3033 7.5165h8.3684zh8.3684l7.0651 7.5165h-8.3684z" fill="#f00"/>
    <path id="path3095" fill-rule="evenodd" d="m564.72 609.89c0.0139 0.00027 0.0277 0.004 0.0414 0.0117 0.0132 0.007 0.0262 0.0178 0.0392 0.0317 0.0258 0.0276 0.0512 0.0685 0.0762 0.12235 0.0493 0.10652 0.0966 0.26434 0.14101 0.47234 0.0865 0.40498 0.16198 1.0017 0.21776 1.7832 0.10505 1.4717 0.14305 3.6044 0.0281 6.353-0.098 2.3586-0.30214 5.1776-0.72107 8.4196-0.41894 3.242-1.0512 6.9082-2.078 10.931-0.75962 3.0238-1.7499 6.2983-3.1951 9.6706s-3.3441 6.8442-6.0358 10.142c-2.1573 2.629-4.9187 5.0686-8.3679 6.8124-3.4252 1.695-7.358 2.5519-11.391 2.4373-7.4418-0.17749-15.484 0.28992-24.138 0.75367-9.155 0.49589-18.907 1.087-29.241 1.3313-8.8734 0.21624-18.265 0.24723-28.058-0.87445-3.8376-0.43627-7.8059-1.0877-11.813-2.2184-3.1433-0.86024-6.4486-2.1389-9.5884-4.2283-3.1286-2.1552-5.755-4.8173-7.9451-7.6657-2.566-3.3109-4.6988-6.8954-6.5218-10.573-4.3437-8.7545-7.3231-18.252-9.5527-27.934-2.5437-10.971-4.1776-22.381-5.0712-34.025-0.91477-11.868-1.0672-24.044-0.33214-36.378 0.60679-10.246 1.8266-20.65 3.9651-31.037 0.26729-1.2983 0.54822-2.5928 0.84318-3.8831 2.3262-10.247 5.6063-20.371 10.519-29.718 4.0909-7.901 9.7349-15.375 17.375-20.681 3.5516-2.4255 7.5164-4.246 11.708-5.3068 0.00001 0 0.00002 0 0.00003-0.00001 4.4757-1.1098 9.038-1.3267 13.427-0.82149 5.5591 0.62412 10.973 2.1914 15.933 4.6512 4.9041 2.4502 9.2514 5.6946 12.967 9.4103 8.4281 8.4964 13.782 18.825 17.452 28.961 4.6175 12.62 6.9932 25.273 8.363 37.279 1.6391 14.266 1.8479 27.789 1.3396 40.277-0.56434 13.947-2.0529 26.669-4.0702 37.906v0.00002c-1.0447 5.8394-2.2219 11.315-3.5554 16.348-1.3336 5.0325-2.8217 9.6221-4.4089 13.733 0 0-0.00001 0-0.00001 0.00001-1.5103 3.9202-3.1668 7.4455-4.9883 10.419-0.79022 1.313-1.6428 2.5588-2.5649 3.6554-0.92206 1.0966-1.9129 2.0448-2.9536 2.8147-0.92943 0.68966-1.9613 1.2058-3.0119 1.482-1.0969 0.28164-2.1677 0.24199-3.0932-0.006-1.2489-0.35151-2.1419-0.9878-2.7966-1.5946l-0.00001-0.00001c-0.96695-0.89247-1.4879-1.7108-1.7904-2.2799-0.30247-0.56904-0.37678-0.9024-0.27286-0.97886 0.10392-0.0765 0.38756 0.10674 0.86703 0.49202s1.1509 0.98907 2.1124 1.5563 0.00001 0 0.00001 0.00001c0.64535 0.37732 1.4254 0.75029 2.2854 0.83154 0.61815 0.0692 1.3138-0.0176 1.9824-0.28607 0.67051-0.26013 1.3399-0.72836 2.0115-1.3309 0.7771-0.69726 1.5028-1.5601 2.1905-2.5794 0.68775-1.0192 1.3369-2.1958 1.9979-3.4759 1.4542-2.8793 2.7444-6.2804 3.9605-10.144v-0.00001c1.2724-4.0525 2.4472-8.5552 3.481-13.495 1.0338-4.9397 1.9249-10.317 2.7133-16.084v-0.00002c1.5048-11.064 2.5138-23.532 2.6622-37.171 0.1299-12.211-0.40318-25.341-2.2834-39.061-1.5933-11.558-4.0504-23.534-8.5445-35.164-3.6367-9.3087-8.4476-18.484-15.67-25.431-3.1228-3.0323-6.6834-5.6466-10.589-7.5302-3.9278-1.9123-8.2872-3.1195-12.775-3.5932-3.3658-0.34213-6.7787-0.17146-9.9737 0.66796h-0.00002c-2.999 0.76655-5.9098 2.1409-8.5583 3.9603-5.8709 3.945-10.403 10.247-14.129 17.2-4.3791 8.3119-7.335 17.624-9.5717 27.317-0.27902 1.2181-0.54498 2.4416-0.79826 3.6701-2.0265 9.8288-3.1995 19.763-3.821 29.627-0.74303 11.867-0.65196 23.598 0.15419 35.051 0.79534 11.244 2.2608 22.184 4.5792 32.643 2.0688 9.2643 4.6851 18.094 8.5119 26.003 1.6003 3.3046 3.3636 6.403 5.4315 9.1302 1.7826 2.3282 3.6925 4.3863 5.8307 5.8655 1.9164 1.3994 4.3747 2.3378 7.0105 3.172 3.3449 1.0249 6.8584 1.6559 10.422 2.146 9.1119 1.2444 18.158 1.3996 26.917 1.4152 10.15 0.0113 19.863-0.30817 29.06-0.5167 8.6312-0.19972 16.907-0.37868 24.677 0.1052 3.0719 0.19427 6.0821-0.29961 8.6437-1.4536 2.633-1.1506 4.9164-3.0082 6.8295-5.0818 2.4533-2.6464 4.2823-5.634 5.7621-8.6346s2.609-6.0159 3.5606-8.8483c1.2476-3.7615 2.1348-7.2403 2.8276-10.34 0.69275-3.1001 1.1896-5.8227 1.5894-8.1102 0.46508-2.6641 0.78907-4.7379 1.0535-6.173 0.14041-0.76209 0.26323-1.3429 0.37685-1.7374 0.0584-0.20263 0.11426-0.35571 0.16866-0.45881 0.0276-0.0523 0.0547-0.0916 0.0816-0.11798 0.0135-0.0133 0.027-0.0232 0.0404-0.0299 0.014-0.007 0.0279-0.0103 0.0418-0.01z"/>
    <path id="path3099" fill-rule="evenodd" d="m733.18 606.69c0.0332-0.0131 0.0685-0.0201 0.10592-0.0215 0.0357-0.001 0.0734 0.003 0.11306 0.0113 0.0788 0.0175 0.16544 0.0544 0.26087 0.11032 0.18782 0.10909 0.40793 0.2876 0.668 0.53298 0.50759 0.47887 1.1608 1.1952 2.0117 2.0978 1.6409 1.7405 4.0157 4.13 7.3968 6.5438 1.6992 1.2131 3.652 2.4165 5.8663 3.5298 2.2143 1.1132 4.691 2.1361 7.394 3.0004 3.0218 0.96927 6.3313 1.7235 9.8923 2.2246 3.561 0.50106 7.3738 0.74883 11.36 0.76015h0.00001c9.7112 0.011 20.302 0.14646 31.384 0.41975 4.6349 0.11431 9.1828 0.24845 13.615 0.40005 4.4137 0.14841 8.7226-0.17875 12.782-0.91844 4.0596-0.73968 7.8695-1.8919 11.343-3.3664 6.7857-2.781 12.365-6.7791 16.757-10.675 4.2343-5.2866 7.8181-9.515 10.496-12.358 2.6776-2.8431 4.4485-4.3003 5.025-3.9956h0.00001l0.004 0.002s0-0.00001 0.004 0.002v0.00001h0.00002c0.56408 0.3224-0.12258 2.3861-1.9013 5.9271s-4.6499 8.56-8.4225 14.744c-2.1687 2.4987-4.7496 5.0602-7.7847 7.5122-3.0351 2.4519-6.5251 4.7939-10.479 6.812-3.9875 1.9868-8.4046 3.5857-13.133 4.6565-4.7283 1.0708-9.7672 1.6129-14.934 1.525-4.4346-0.0671-8.9836-0.15726-13.618-0.27156-11.082-0.2733-21.666-0.66-31.366-1.1277-4.4078-0.19567-8.6693-0.73494-12.659-1.5995-3.9895-0.8646-7.7066-2.054-11.072-3.493-3.0205-1.2938-5.7401-2.8088-8.1134-4.4283-2.3732-1.6195-4.401-3.343-6.0893-5.053-3.3456-3.3906-5.3156-6.7118-6.3205-9.1403-0.52007-1.2575-0.79057-2.2983-0.87155-3.0398-0.0415-0.37982-0.0348-0.68634 0.0138-0.90788 0.0249-0.11148 0.0601-0.20248 0.10485-0.27165 0.0225-0.0348 0.0474-0.0642 0.0746-0.088 0.0285-0.0249 0.0594-0.044 0.0926-0.057z"/>
    <path id="path3282" fill-rule="evenodd" d="m159.09 485.9c0.0284 0.00057 0.0566 0.009 0.0845 0.0262 0.0269 0.0162 0.0536 0.0399 0.0801 0.0711 0.0522 0.0616 0.10338 0.15242 0.15305 0.27191 0.0967 0.23304 0.18775 0.57609 0.26896 1.0249 0.15292 0.84507 0.27235 2.0695 0.31715 3.6494 0.0777 2.7027-0.0133 6.4732-0.84302 11.162-0.29092 1.7144-0.68929 3.5886-1.3306 5.567-0.64127 1.9785-1.5246 4.0621-2.8588 6.143-1.0012 1.5664-2.3867 3.1179-4.3106 4.3454-1.8467 1.1269-4.0359 1.7442-6.3256 1.6844-3.3944-0.0538-7.0862 0.26086-11.129 0.56406-4.3027 0.33085-8.8923 0.71319-13.79 0.89756-4.2204 0.16831-8.7612 0.21198-13.576-0.41683-3.391-0.31354-7.4518-1.2586-11.265-4.1351-1.7512-1.4688-3.1203-3.1402-4.1791-4.8162-0.000003 0-0.000005 0-0.000008-0.00001-1.3136-2.0341-2.3714-4.1605-3.2526-6.2851-2.1542-5.1769-3.6061-10.665-4.6847-16.197-2.5064-12.722-3.3957-26.427-2.726-40.481 0.3067-6.5952 0.98512-13.339 2.2593-20.124 0.01845-0.0995 0.03704-0.19904 0.05578-0.29863 1.0817-5.7491 2.6256-11.515 5.0057-17.014 1.8521-4.4704 4.6202-9.0162 8.8105-12.608 1.8351-1.5371 4.0169-2.7656 6.4613-3.532 2.5336-0.75246 5.1167-0.91322 7.5742-0.56355 3.0622 0.42708 5.9737 1.4766 8.5607 3.044 2.671 1.6431 4.8953 3.6934 6.6997 5.9189 4.3436 5.4046 6.826 11.467 8.4637 17.201 2.18 7.4251 3.2329 14.702 3.8054 21.56v0.00001c0.69604 8.2294 0.69977 15.983 0.35728 23.127-0.38114 8.001-1.2118 15.287-2.2992 21.709-0.56315 3.3409-1.1925 6.4755-1.8997 9.3568-0.70721 2.8813-1.4912 5.5096-2.3219 7.8599-0.7871 2.2345-1.6549 4.2625-2.6072 5.9823-0.78497 1.4664-1.7708 2.8384-2.9063 3.7942-0.4757 0.41075-1.0624 0.74413-1.6907 0.93715-0.64549 0.18973-1.2859 0.14819-1.8339-0.0377-0.73437-0.28161-1.1728-0.70735-1.463-1.0921h-0.00001c-0.45655-0.59281-0.64446-1.0918-0.72857-1.4418-0.0841-0.35007-0.0558-0.55757 0.0533-0.62365 0.1091-0.0661 0.30061 0.0127 0.57741 0.20015s0.63637 0.49408 1.114 0.76031c0.3033 0.16101 0.63755 0.31878 0.92207 0.29117 0.17765-0.005 0.38103-0.0797 0.54819-0.19763 0.20788-0.1235 0.41436-0.36335 0.66691-0.66666 0.63261-0.77788 1.0979-1.9127 1.6494-3.3474 0.59355-1.636 1.1035-3.5502 1.5927-5.7421 0.51112-2.3034 0.97903-4.8588 1.3828-7.6621 0.40383-2.8033 0.74257-5.8548 1.0406-9.1383 0.56383-6.2798 0.90672-13.353 0.86044-21.098-0.0435-6.9149-0.38309-14.34-1.3431-22.109v-0.00001c-0.80935-6.4917-1.986-13.19-4.1298-19.746-1.7054-5.0756-3.7726-10.043-7.081-13.812-1.3142-1.5134-2.7656-2.8367-4.3558-3.7402-1.4892-0.86859-3.1861-1.4482-4.9127-1.6568-1.1887-0.13432-2.3844-0.0602-3.4085 0.28571-1.0241 0.30444-2.063 0.94138-3.0503 1.7518-2.4946 1.9688-4.2875 5.2894-5.9753 8.9914-1.981 4.5695-3.2885 9.6302-4.3147 14.932-0.01778 0.0918-0.03546 0.1837-0.05306 0.27561-1.1778 6.2332-1.8264 12.526-2.1653 18.772-0.70926 13.376-0.07128 26.3 2.0314 38.259 0.92625 5.2033 2.0671 10.118 3.7935 14.556 0.70595 1.8081 1.4595 3.4824 2.3574 4.9492 0.000002 0 0.000003 0.00001 0.000005 0.00001 0.75885 1.2015 1.4831 2.2264 2.2862 2.899 1.3198 1.4264 4.0258 1.9244 6.9612 2.5728 4.0144 0.71361 8.1446 0.83514 12.225 0.8887 4.6791 0.052 9.22-0.0834 13.572-0.15613 4.0146-0.0725 7.9816-0.13187 11.781 0.19432 1.0706 0.11772 2.1806-0.0754 3.0752-0.53298 1.041-0.48617 1.9744-1.4071 2.821-2.4335h0.00001c1.1705-1.4336 2.0352-3.0549 2.748-4.6923 0.71274-1.6374 1.2725-3.2918 1.7705-4.8558 1.3176-4.2352 2.0009-7.8069 2.5452-10.39 0.31738-1.508 0.5712-2.6824 0.79908-3.4964 0.12103-0.43231 0.23436-0.76185 0.34387-0.98599 0.0563-0.11534 0.11147-0.20252 0.16611-0.26121 0.0277-0.0297 0.0552-0.0521 0.0827-0.0671 0.0285-0.0155 0.0569-0.0232 0.0853-0.0226z"/>
  </g>
  <metadata>
    <rdf:RDF>
      <cc:Work>
        <dc:format>image/svg+xml</dc:format>
        <dc:type rdf:resource="http://purl.org/dc/dcmitype/StillImage"/>
        <cc:license rdf:resource="http://creativecommons.org/licenses/publicdomain/"/>
        <dc:publisher>
          <cc:Agent rdf:about="http://openclipart.org/">
            <dc:title>Openclipart</dc:title>
          </cc:Agent>
        </dc:publisher>
        <dc:title>silhouetteColtCZ</dc:title>
        <dc:date>2013-04-02T12:59:24</dc:date>
        <dc:description>car, clip art, clipart, colt, mitsubishi, silhouette, vechicle, </dc:description>
        <dc:source>http://openclipart.org/detail/176712/silhouettecoltcz-by-koconmus-176712</dc:source>
        <dc:creator>
          <cc:Agent>
            <dc:title>koconmus</dc:title>
          </cc:Agent>
        </dc:creator>
        <dc:subject>
          <rdf:Bag>
            <rdf:li>car</rdf:li>
            <rdf:li>clip art</rdf:li>
            <rdf:li>clipart</rdf:li>
            <rdf:li>colt</rdf:li>
            <rdf:li>mitsubishi</rdf:li>
            <rdf:li>silhouette</rdf:li>
            <rdf:li>vechicle</rdf:li>
          </rdf:Bag>
        </dc:subject>
      </cc:Work>
      <cc:License rdf:about="http://creativecommons.org/licenses/publicdomain/">
        <cc:permits rdf:resource="http://creativecommons.org/ns#Reproduction"/>
        <cc:permits rdf:resource="http://creativecommons.org/ns#Distribution"/>
        <cc:permits rdf:resource="http://creativecommons.org/ns#DerivativeWorks"/>
      </cc:License>
    </rdf:RDF>
  </metadata>
</svg>
